# xmcd
#
# Track frame offsets: 
#        150
#        12510
#        22152
#        35404
#        46818
#        70410
#        81548
#        97585
#        119261
#        131502
#        141747
#        157744
#        166396
#        177347
#        194495
#        205875
#
# Disc length: 3535 seconds
#
# Revision: 0
# Processed by: cddbd v1.5.2PL0 Copyright (c) Steve Scherf et al.
# Submitted via: ExactAudioCopy v0.99pb4
#
DISCID=e10dcd10
DTITLE=The Twang - Ten Yeeehaws After
DYEAR=2008
DGENRE=Country
TTITLE0=Faith
TTITLE1=I Was Made For Lovin' You
TTITLE2=Runaway
TTITLE3=Anther Brick In The Wall (feat. Jesse Dayton)
TTITLE4=Bohemian Rhapsody
TTITLE5=Walk This Way
TTITLE6=Oops I Did It Again (live in TX)
TTITLE7=Seven Nation Army (Full Version)
TTITLE8=Wer Von Der Schönen Zu Scheiden Verdammt Ist
TTITLE9=White Wedding (Acoustic Version)
TTITLE10=Smoke On The Water (Al's Way)
TTITLE11=Country Roads
TTITLE12=You're My Heart, You're My Soul
TTITLE13=Yes Sir I Can Boogie (live)
TTITLE14=I Still Haven't Found ... (live)
TTITLE15=Reality (live), Jumpin' Jack Flash (hidden track)
EXTD=
EXTT0=
EXTT1=
EXTT2=
EXTT3=
EXTT4=
EXTT5=
EXTT6=
EXTT7=
EXTT8=
EXTT9=
EXTT10=
EXTT11=
EXTT12=
EXTT13=
EXTT14=
EXTT15=
PLAYORDER=
